<svg width="27" height="27" viewBox="0 0 27 27" fill="none" xmlns="http://www.w3.org/2000/svg">
<path d="M0.5 7.5C0.5 3.63401 3.63401 0.5 7.5 0.5H24.5C25.6046 0.5 26.5 1.39543 26.5 2.5V19.5C26.5 23.366 23.366 26.5 19.5 26.5H2.5C1.39543 26.5 0.5 25.6046 0.5 24.5V7.5Z" stroke="#3E3C4B"/>
<path d="M19.7224 5.5H7.27936C6.29902 5.5 5.50178 6.29733 5.50178 7.27778V10.8333H7.27936V7.27778H19.7224V19.7222H7.27936V16.1667H5.50178V19.7222C5.50178 20.7027 6.29902 21.5 7.27936 21.5H19.7224C20.7028 21.5 21.5 20.7027 21.5 19.7222V7.27778C21.5 6.29733 20.7019 5.5 19.7224 5.5Z" fill="#3E3C4B"/>
<path d="M12.6103 17.0556L17.0543 13.5L12.6103 9.94444V12.612H5.5V14.3898H12.6103V17.0556Z" fill="#3E3C4B"/>
</svg>
