<svg width="1352" height="354" viewBox="0 0 1352 354" fill="none" xmlns="http://www.w3.org/2000/svg">
<foreignObject x="87.84" y="-8.96469" width="1176.32" height="316.32"><div xmlns="http://www.w3.org/1999/xhtml" style="backdrop-filter:blur(44.08px);clip-path:url(#bgblur_0_2025_459_clip_path);height:100%;width:100%"></div></foreignObject><g filter="url(#filter0_iiii_2025_459)" data-figma-bg-blur-radius="88.16">
<path d="M1159.53 79.1953C1168.63 79.1953 1176 86.5696 1176 95.666C1176 163.889 1120.69 219.195 1052.47 219.195H192.471C183.374 219.195 176 211.821 176 202.725C176 134.501 231.306 79.1954 299.529 79.1953H544.54C575.041 107.801 622.586 126.195 676 126.195C729.414 126.195 776.959 107.801 807.46 79.1953H1159.53Z" fill="#C9D5E5" fill-opacity="0.2"/>
</g>
<g filter="url(#filter1_dii_2025_459)">
<path d="M798.222 127.145C805.311 137.407 805.311 150.984 798.222 161.246L751.945 228.241C746.344 236.35 737.117 241.19 727.261 241.19H624.739C614.883 241.19 605.656 236.35 600.055 228.241L553.778 161.246C546.689 150.984 546.689 137.407 553.778 127.145L600.055 60.15C605.656 52.0411 614.883 47.2005 624.739 47.2005H727.261C737.117 47.2005 746.344 52.0411 751.945 60.15L798.222 127.145Z" fill="white"/>
</g>
<g clip-path="url(#clip1_2025_459)">
<path d="M327 146.417L311.628 156.666C311.503 156.749 311.357 156.797 311.206 156.804C311.056 156.811 310.906 156.778 310.773 156.706C310.64 156.635 310.529 156.529 310.452 156.4C310.374 156.271 310.333 156.123 310.333 155.972V132.419C310.333 132.268 310.374 132.12 310.452 131.991C310.529 131.862 310.64 131.756 310.773 131.685C310.906 131.613 311.056 131.58 311.206 131.587C311.357 131.594 311.503 131.642 311.628 131.726L327 141.974V132.419C327 132.268 327.041 132.12 327.118 131.991C327.196 131.862 327.307 131.756 327.44 131.685C327.573 131.613 327.722 131.58 327.873 131.587C328.023 131.594 328.169 131.642 328.295 131.726L345.96 143.502C346.074 143.578 346.167 143.681 346.232 143.802C346.297 143.923 346.331 144.058 346.331 144.196C346.331 144.333 346.297 144.468 346.232 144.589C346.167 144.71 346.074 144.813 345.96 144.889L328.295 156.666C328.169 156.749 328.023 156.797 327.873 156.804C327.722 156.811 327.573 156.778 327.44 156.706C327.307 156.635 327.196 156.529 327.118 156.4C327.041 156.271 327 156.123 327 155.972V146.417Z" fill="#3E3C4B"/>
<foreignObject x="306.921" y="128.505" width="44.1603" height="33.381"><div xmlns="http://www.w3.org/1999/xhtml" style="backdrop-filter:blur(2.04px);clip-path:url(#bgblur_2_2025_459_clip_path);height:100%;width:100%"></div></foreignObject><g filter="url(#filter2_iiii_2025_459)" data-figma-bg-blur-radius="4.08112">
<path d="M327.669 147.417L312.297 157.666C312.171 157.749 312.026 157.797 311.875 157.804C311.725 157.811 311.575 157.778 311.442 157.706C311.309 157.635 311.198 157.529 311.12 157.4C311.043 157.271 311.002 157.123 311.002 156.972V133.419C311.002 133.268 311.043 133.12 311.12 132.991C311.198 132.862 311.309 132.756 311.442 132.685C311.575 132.613 311.725 132.58 311.875 132.587C312.026 132.594 312.171 132.642 312.297 132.726L327.669 142.974V133.419C327.669 133.268 327.71 133.12 327.787 132.991C327.865 132.862 327.976 132.756 328.109 132.685C328.242 132.613 328.391 132.58 328.542 132.587C328.692 132.594 328.838 132.642 328.964 132.726L346.629 144.502C346.743 144.578 346.836 144.681 346.901 144.802C346.966 144.923 347 145.058 347 145.196C347 145.333 346.966 145.468 346.901 145.589C346.836 145.71 346.743 145.813 346.629 145.889L328.964 157.666C328.838 157.749 328.692 157.797 328.542 157.804C328.391 157.811 328.242 157.778 328.109 157.706C327.976 157.635 327.865 157.529 327.787 157.4C327.71 157.271 327.669 157.123 327.669 156.972V147.417Z" fill="#3E3C4B" fill-opacity="0.1"/>
</g>
</g>
<path d="M364.914 146.629H367.75C367.695 147.863 367.445 148.914 367 149.781C366.555 150.641 365.914 151.297 365.078 151.75C364.25 152.203 363.238 152.43 362.043 152.43C361.137 152.43 360.324 152.266 359.605 151.938C358.895 151.609 358.289 151.137 357.789 150.52C357.289 149.895 356.906 149.133 356.641 148.234C356.383 147.336 356.254 146.316 356.254 145.176V142.152C356.254 141.012 356.387 139.992 356.652 139.094C356.926 138.195 357.316 137.434 357.824 136.809C358.332 136.184 358.949 135.711 359.676 135.391C360.41 135.062 361.238 134.898 362.16 134.898C363.34 134.898 364.332 135.125 365.137 135.578C365.941 136.031 366.562 136.695 367 137.57C367.438 138.445 367.691 139.512 367.762 140.77H364.926C364.887 139.918 364.77 139.238 364.574 138.73C364.387 138.215 364.098 137.844 363.707 137.617C363.324 137.391 362.809 137.277 362.16 137.277C361.621 137.277 361.156 137.379 360.766 137.582C360.383 137.785 360.066 138.09 359.816 138.496C359.574 138.895 359.391 139.398 359.266 140.008C359.148 140.609 359.09 141.316 359.09 142.129V145.176C359.09 145.957 359.141 146.648 359.242 147.25C359.344 147.852 359.508 148.363 359.734 148.785C359.961 149.199 360.262 149.516 360.637 149.734C361.012 149.945 361.48 150.051 362.043 150.051C362.715 150.051 363.25 149.945 363.648 149.734C364.055 149.523 364.355 149.168 364.551 148.668C364.746 148.168 364.867 147.488 364.914 146.629ZM372.988 139.516V152.195H370.246V139.516H372.988ZM379.914 139.516L375.086 147.18H372.344L371.969 144.555H373.891L376.539 139.516H379.914ZM376.645 152.195L373.75 146.688L375.906 145.07L380.195 152.195H376.645ZM381.004 146.371V145.352C381.004 144.367 381.125 143.496 381.367 142.738C381.609 141.98 381.953 141.348 382.398 140.84C382.852 140.324 383.383 139.938 383.992 139.68C384.602 139.414 385.273 139.281 386.008 139.281C386.758 139.281 387.438 139.414 388.047 139.68C388.664 139.938 389.195 140.324 389.641 140.84C390.094 141.348 390.441 141.98 390.684 142.738C390.926 143.496 391.047 144.367 391.047 145.352V146.371C391.047 147.355 390.926 148.227 390.684 148.984C390.441 149.742 390.094 150.379 389.641 150.895C389.195 151.402 388.668 151.785 388.059 152.043C387.449 152.301 386.773 152.43 386.031 152.43C385.297 152.43 384.621 152.301 384.004 152.043C383.395 151.785 382.863 151.402 382.41 150.895C381.957 150.379 381.609 149.742 381.367 148.984C381.125 148.227 381.004 147.355 381.004 146.371ZM383.734 145.352V146.371C383.734 147.004 383.789 147.559 383.898 148.035C384.008 148.504 384.164 148.895 384.367 149.207C384.57 149.52 384.812 149.754 385.094 149.91C385.375 150.066 385.688 150.145 386.031 150.145C386.414 150.145 386.746 150.066 387.027 149.91C387.316 149.754 387.555 149.52 387.742 149.207C387.938 148.895 388.082 148.504 388.176 148.035C388.27 147.559 388.316 147.004 388.316 146.371V145.352C388.316 144.727 388.262 144.18 388.152 143.711C388.043 143.234 387.887 142.84 387.684 142.527C387.48 142.207 387.234 141.969 386.945 141.812C386.664 141.656 386.352 141.578 386.008 141.578C385.672 141.578 385.363 141.656 385.082 141.812C384.809 141.969 384.57 142.207 384.367 142.527C384.164 142.84 384.008 143.234 383.898 143.711C383.789 144.18 383.734 144.727 383.734 145.352ZM396.133 141.953V157.07H393.414V139.516H395.91L396.133 141.953ZM402.953 145.352V146.359C402.953 147.352 402.863 148.227 402.684 148.984C402.504 149.742 402.238 150.379 401.887 150.895C401.543 151.402 401.117 151.785 400.609 152.043C400.102 152.301 399.508 152.43 398.828 152.43C398.188 152.43 397.629 152.289 397.152 152.008C396.684 151.727 396.289 151.332 395.969 150.824C395.648 150.316 395.391 149.715 395.195 149.02C395.008 148.316 394.871 147.551 394.785 146.723V145.176C394.871 144.301 395.004 143.504 395.184 142.785C395.371 142.059 395.625 141.434 395.945 140.91C396.273 140.387 396.672 139.984 397.141 139.703C397.609 139.422 398.168 139.281 398.816 139.281C399.496 139.281 400.094 139.402 400.609 139.645C401.125 139.887 401.555 140.258 401.898 140.758C402.25 141.258 402.512 141.891 402.684 142.656C402.863 143.414 402.953 144.312 402.953 145.352ZM400.223 146.359V145.352C400.223 144.703 400.18 144.145 400.094 143.676C400.016 143.199 399.883 142.809 399.695 142.504C399.516 142.199 399.285 141.973 399.004 141.824C398.73 141.676 398.391 141.602 397.984 141.602C397.625 141.602 397.309 141.676 397.035 141.824C396.762 141.973 396.531 142.18 396.344 142.445C396.156 142.703 396.008 143.012 395.898 143.371C395.789 143.723 395.719 144.105 395.688 144.52V147.391C395.758 147.891 395.875 148.352 396.039 148.773C396.203 149.188 396.441 149.52 396.754 149.77C397.074 150.02 397.492 150.145 398.008 150.145C398.406 150.145 398.746 150.066 399.027 149.91C399.309 149.754 399.535 149.52 399.707 149.207C399.887 148.895 400.016 148.504 400.094 148.035C400.18 147.559 400.223 147 400.223 146.359ZM404.863 146.371V145.352C404.863 144.367 404.984 143.496 405.227 142.738C405.469 141.98 405.812 141.348 406.258 140.84C406.711 140.324 407.242 139.938 407.852 139.68C408.461 139.414 409.133 139.281 409.867 139.281C410.617 139.281 411.297 139.414 411.906 139.68C412.523 139.938 413.055 140.324 413.5 140.84C413.953 141.348 414.301 141.98 414.543 142.738C414.785 143.496 414.906 144.367 414.906 145.352V146.371C414.906 147.355 414.785 148.227 414.543 148.984C414.301 149.742 413.953 150.379 413.5 150.895C413.055 151.402 412.527 151.785 411.918 152.043C411.309 152.301 410.633 152.43 409.891 152.43C409.156 152.43 408.48 152.301 407.863 152.043C407.254 151.785 406.723 151.402 406.27 150.895C405.816 150.379 405.469 149.742 405.227 148.984C404.984 148.227 404.863 147.355 404.863 146.371ZM407.594 145.352V146.371C407.594 147.004 407.648 147.559 407.758 148.035C407.867 148.504 408.023 148.895 408.227 149.207C408.43 149.52 408.672 149.754 408.953 149.91C409.234 150.066 409.547 150.145 409.891 150.145C410.273 150.145 410.605 150.066 410.887 149.91C411.176 149.754 411.414 149.52 411.602 149.207C411.797 148.895 411.941 148.504 412.035 148.035C412.129 147.559 412.176 147.004 412.176 146.371V145.352C412.176 144.727 412.121 144.18 412.012 143.711C411.902 143.234 411.746 142.84 411.543 142.527C411.34 142.207 411.094 141.969 410.805 141.812C410.523 141.656 410.211 141.578 409.867 141.578C409.531 141.578 409.223 141.656 408.941 141.812C408.668 141.969 408.43 142.207 408.227 142.527C408.023 142.84 407.867 143.234 407.758 143.711C407.648 144.18 407.594 144.727 407.594 145.352ZM421.762 150.145C422.113 150.145 422.426 150.07 422.699 149.922C422.98 149.773 423.203 149.543 423.367 149.23C423.531 148.91 423.621 148.496 423.637 147.988H426.203C426.188 148.887 425.98 149.672 425.582 150.344C425.184 151.008 424.652 151.523 423.988 151.891C423.332 152.25 422.602 152.43 421.797 152.43C420.961 152.43 420.23 152.297 419.605 152.031C418.988 151.758 418.477 151.363 418.07 150.848C417.664 150.332 417.359 149.707 417.156 148.973C416.961 148.23 416.863 147.383 416.863 146.43V145.281C416.863 144.336 416.961 143.492 417.156 142.75C417.359 142.008 417.664 141.379 418.07 140.863C418.477 140.348 418.988 139.957 419.605 139.691C420.223 139.418 420.949 139.281 421.785 139.281C422.676 139.281 423.445 139.469 424.094 139.844C424.75 140.211 425.262 140.75 425.629 141.461C425.996 142.172 426.188 143.043 426.203 144.074H423.637C423.621 143.527 423.539 143.07 423.391 142.703C423.242 142.328 423.031 142.047 422.758 141.859C422.492 141.672 422.156 141.578 421.75 141.578C421.305 141.578 420.938 141.664 420.648 141.836C420.367 142 420.148 142.242 419.992 142.562C419.844 142.883 419.738 143.273 419.676 143.734C419.621 144.188 419.594 144.703 419.594 145.281V146.43C419.594 147.023 419.621 147.551 419.676 148.012C419.73 148.465 419.832 148.852 419.98 149.172C420.137 149.492 420.359 149.734 420.648 149.898C420.938 150.062 421.309 150.145 421.762 150.145ZM433.586 139.516V152.195H430.844V139.516H433.586ZM436.938 139.516V141.789H427.527V139.516H436.938ZM440.969 143.523H443.98C444.926 143.523 445.727 143.707 446.383 144.074C447.039 144.441 447.535 144.953 447.871 145.609C448.215 146.258 448.387 147.004 448.387 147.848C448.387 148.465 448.289 149.039 448.094 149.57C447.898 150.102 447.613 150.562 447.238 150.953C446.863 151.344 446.402 151.648 445.855 151.867C445.316 152.086 444.691 152.195 443.98 152.195H439.117V139.516H441.859V149.91H443.98C444.395 149.91 444.723 149.812 444.965 149.617C445.215 149.422 445.391 149.172 445.492 148.867C445.602 148.562 445.656 148.234 445.656 147.883C445.656 147.531 445.602 147.199 445.492 146.887C445.391 146.566 445.215 146.309 444.965 146.113C444.723 145.91 444.395 145.809 443.98 145.809H440.969V143.523Z" fill="#3E3C4B"/>
<g clip-path="url(#clip3_2025_459)">
<path d="M892.182 136.923V135.104H890.364V133.286H886.727V129.65H884.909V127.832H883.091V126.013H881.273V124.195H872.182V126.013H870.364V127.832H868.545V126.013H863.091V127.832H859.455V129.65H857.636V133.286H855.818V142.377H854V151.468H855.818V153.286H857.636V155.104H861.273V158.741H863.091V160.559H864.909V162.377H866.727V164.195H875.818V162.377H877.636V160.559H879.455V162.377H884.909V160.559H888.545V158.741H890.364V155.104H892.182V146.013H894V136.923H892.182ZM868.545 133.286H870.364V129.65H872.182V127.832H881.273V129.65H883.091V131.468H874V133.286H872.182V135.104H870.364V138.741H868.545V142.377H866.727V136.923H868.545V133.286ZM861.273 153.286V151.468H859.455V149.65H857.636V142.377H859.455V146.013H861.273V149.65H875.818V151.468H874V153.286H861.273ZM879.455 155.104H877.636V158.741H875.818V160.559H866.727V158.741H864.909V156.923H874V155.104H875.818V153.286H877.636V149.65H879.455V146.013H881.273V151.468H879.455V155.104ZM888.545 155.104H886.727V156.923H884.909V158.741H881.273V155.104H883.091V151.468H884.909V147.832H883.091V144.195H881.273V142.377H879.455V144.195H877.636V147.832H870.364V146.013H868.545V147.832H864.909V146.013H863.091V144.195H861.273V140.559H859.455V133.286H861.273V131.468H863.091V129.65H866.727V133.286H864.909V136.923H863.091V140.559H864.909V144.195H866.727V146.013H868.545V144.195H870.364V140.559H877.636V142.377H879.455V140.559H883.091V142.377H884.909V144.195H886.727V147.832H888.545V155.104ZM890.364 146.013H888.545V142.377H886.727V138.741H872.182V136.923H874V135.104H886.727V136.923H888.545V138.741H890.364V146.013Z" fill="#3E3C4B"/>
<foreignObject x="849.667" y="119.862" width="50.6667" height="50.6667"><div xmlns="http://www.w3.org/1999/xhtml" style="backdrop-filter:blur(2.67px);clip-path:url(#bgblur_4_2025_459_clip_path);height:100%;width:100%"></div></foreignObject><g filter="url(#filter3_iiii_2025_459)" data-figma-bg-blur-radius="5.33333">
<path d="M893.182 137.923V136.104H891.364V134.286H887.727V130.65H885.909V128.832H884.091V127.013H882.273V125.195H873.182V127.013H871.364V128.832H869.545V127.013H864.091V128.832H860.455V130.65H858.636V134.286H856.818V143.377H855V152.468H856.818V154.286H858.636V156.104H862.273V159.741H864.091V161.559H865.909V163.377H867.727V165.195H876.818V163.377H878.636V161.559H880.455V163.377H885.909V161.559H889.545V159.741H891.364V156.104H893.182V147.013H895V137.923H893.182ZM869.545 134.286H871.364V130.65H873.182V128.832H882.273V130.65H884.091V132.468H875V134.286H873.182V136.104H871.364V139.741H869.545V143.377H867.727V137.923H869.545V134.286ZM862.273 154.286V152.468H860.455V150.65H858.636V143.377H860.455V147.013H862.273V150.65H876.818V152.468H875V154.286H862.273ZM880.455 156.104H878.636V159.741H876.818V161.559H867.727V159.741H865.909V157.923H875V156.104H876.818V154.286H878.636V150.65H880.455V147.013H882.273V152.468H880.455V156.104ZM889.545 156.104H887.727V157.923H885.909V159.741H882.273V156.104H884.091V152.468H885.909V148.832H884.091V145.195H882.273V143.377H880.455V145.195H878.636V148.832H871.364V147.013H869.545V148.832H865.909V147.013H864.091V145.195H862.273V141.559H860.455V134.286H862.273V132.468H864.091V130.65H867.727V134.286H865.909V137.923H864.091V141.559H865.909V145.195H867.727V147.013H869.545V145.195H871.364V141.559H878.636V143.377H880.455V141.559H884.091V143.377H885.909V145.195H887.727V148.832H889.545V156.104ZM891.364 147.013H889.545V143.377H887.727V139.741H873.182V137.923H875V136.104H887.727V137.923H889.545V139.741H891.364V147.013Z" fill="#3E3C4B" fill-opacity="0.1"/>
</g>
</g>
<path d="M909.793 135.133V152.195H906.957V135.133H909.793ZM914.141 135.133V137.523H902.656V135.133H914.141ZM919.941 152.43C919.121 152.43 918.391 152.309 917.75 152.066C917.109 151.816 916.566 151.449 916.121 150.965C915.676 150.473 915.336 149.871 915.102 149.16C914.867 148.441 914.75 147.609 914.75 146.664V145.445C914.75 144.375 914.871 143.453 915.113 142.68C915.363 141.898 915.707 141.258 916.145 140.758C916.582 140.258 917.098 139.887 917.691 139.645C918.293 139.402 918.945 139.281 919.648 139.281C920.445 139.281 921.137 139.41 921.723 139.668C922.309 139.926 922.789 140.312 923.164 140.828C923.547 141.344 923.828 141.98 924.008 142.738C924.195 143.496 924.289 144.367 924.289 145.352V146.723H916.062V144.66H921.594V144.367C921.578 143.789 921.508 143.293 921.383 142.879C921.258 142.457 921.055 142.137 920.773 141.918C920.5 141.691 920.121 141.578 919.637 141.578C919.285 141.578 918.973 141.645 918.699 141.777C918.426 141.91 918.199 142.125 918.02 142.422C917.848 142.719 917.715 143.117 917.621 143.617C917.527 144.109 917.48 144.719 917.48 145.445V146.664C917.48 147.297 917.535 147.832 917.645 148.27C917.762 148.707 917.934 149.066 918.16 149.348C918.387 149.621 918.66 149.824 918.98 149.957C919.309 150.082 919.688 150.145 920.117 150.145C920.75 150.145 921.293 150.027 921.746 149.793C922.207 149.551 922.605 149.238 922.941 148.855L924.148 150.531C923.922 150.836 923.617 151.137 923.234 151.434C922.852 151.723 922.387 151.961 921.84 152.148C921.301 152.336 920.668 152.43 919.941 152.43ZM928.695 139.516L930.523 143.383L932.246 139.516H935.234L931.906 145.738L935.352 152.195H932.363L930.465 148.199L928.602 152.195H925.602L928.965 145.762L925.707 139.516H928.695ZM944.457 144.789V147.062H939.242V144.789H944.457ZM940.016 139.516V152.195H937.285V139.516H940.016ZM946.438 139.516V152.195H943.707V139.516H946.438ZM948.887 146.371V145.352C948.887 144.367 949.008 143.496 949.25 142.738C949.492 141.98 949.836 141.348 950.281 140.84C950.734 140.324 951.266 139.938 951.875 139.68C952.484 139.414 953.156 139.281 953.891 139.281C954.641 139.281 955.32 139.414 955.93 139.68C956.547 139.938 957.078 140.324 957.523 140.84C957.977 141.348 958.324 141.98 958.566 142.738C958.809 143.496 958.93 144.367 958.93 145.352V146.371C958.93 147.355 958.809 148.227 958.566 148.984C958.324 149.742 957.977 150.379 957.523 150.895C957.078 151.402 956.551 151.785 955.941 152.043C955.332 152.301 954.656 152.43 953.914 152.43C953.18 152.43 952.504 152.301 951.887 152.043C951.277 151.785 950.746 151.402 950.293 150.895C949.84 150.379 949.492 149.742 949.25 148.984C949.008 148.227 948.887 147.355 948.887 146.371ZM951.617 145.352V146.371C951.617 147.004 951.672 147.559 951.781 148.035C951.891 148.504 952.047 148.895 952.25 149.207C952.453 149.52 952.695 149.754 952.977 149.91C953.258 150.066 953.57 150.145 953.914 150.145C954.297 150.145 954.629 150.066 954.91 149.91C955.199 149.754 955.438 149.52 955.625 149.207C955.82 148.895 955.965 148.504 956.059 148.035C956.152 147.559 956.199 147.004 956.199 146.371V145.352C956.199 144.727 956.145 144.18 956.035 143.711C955.926 143.234 955.77 142.84 955.566 142.527C955.363 142.207 955.117 141.969 954.828 141.812C954.547 141.656 954.234 141.578 953.891 141.578C953.555 141.578 953.246 141.656 952.965 141.812C952.691 141.969 952.453 142.207 952.25 142.527C952.047 142.84 951.891 143.234 951.781 143.711C951.672 144.18 951.617 144.727 951.617 145.352ZM968.211 139.516V141.824H963.113V139.516H968.211ZM970.379 139.516V152.195H967.66V139.516H970.379ZM962.445 139.516H965.152L964.848 145.797C964.801 146.727 964.715 147.547 964.59 148.258C964.473 148.961 964.312 149.562 964.109 150.062C963.906 150.562 963.66 150.969 963.371 151.281C963.082 151.594 962.746 151.824 962.363 151.973C961.988 152.121 961.562 152.195 961.086 152.195H960.266L960.254 149.828L960.641 149.781C960.875 149.758 961.078 149.684 961.25 149.559C961.422 149.434 961.566 149.25 961.684 149.008C961.801 148.766 961.895 148.457 961.965 148.082C962.043 147.699 962.102 147.25 962.141 146.734C962.188 146.211 962.223 145.609 962.246 144.93L962.445 139.516ZM972.816 146.371V145.352C972.816 144.367 972.938 143.496 973.18 142.738C973.422 141.98 973.766 141.348 974.211 140.84C974.664 140.324 975.195 139.938 975.805 139.68C976.414 139.414 977.086 139.281 977.82 139.281C978.57 139.281 979.25 139.414 979.859 139.68C980.477 139.938 981.008 140.324 981.453 140.84C981.906 141.348 982.254 141.98 982.496 142.738C982.738 143.496 982.859 144.367 982.859 145.352V146.371C982.859 147.355 982.738 148.227 982.496 148.984C982.254 149.742 981.906 150.379 981.453 150.895C981.008 151.402 980.48 151.785 979.871 152.043C979.262 152.301 978.586 152.43 977.844 152.43C977.109 152.43 976.434 152.301 975.816 152.043C975.207 151.785 974.676 151.402 974.223 150.895C973.77 150.379 973.422 149.742 973.18 148.984C972.938 148.227 972.816 147.355 972.816 146.371ZM975.547 145.352V146.371C975.547 147.004 975.602 147.559 975.711 148.035C975.82 148.504 975.977 148.895 976.18 149.207C976.383 149.52 976.625 149.754 976.906 149.91C977.188 150.066 977.5 150.145 977.844 150.145C978.227 150.145 978.559 150.066 978.84 149.91C979.129 149.754 979.367 149.52 979.555 149.207C979.75 148.895 979.895 148.504 979.988 148.035C980.082 147.559 980.129 147.004 980.129 146.371V145.352C980.129 144.727 980.074 144.18 979.965 143.711C979.855 143.234 979.699 142.84 979.496 142.527C979.293 142.207 979.047 141.969 978.758 141.812C978.477 141.656 978.164 141.578 977.82 141.578C977.484 141.578 977.176 141.656 976.895 141.812C976.621 141.969 976.383 142.207 976.18 142.527C975.977 142.84 975.82 143.234 975.711 143.711C975.602 144.18 975.547 144.727 975.547 145.352ZM992.434 139.516V141.824H988.027V152.195H985.297V139.516H992.434ZM996.922 147.52L1000.73 139.516H1003.39V152.195H1000.68V144.203L996.875 152.195H994.215V139.516H996.922V147.52ZM1009.02 147.52L1012.82 139.516H1015.48V152.195H1012.78V144.203L1008.97 152.195H1006.31V139.516H1009.02V147.52ZM1026.83 147.004L1032.77 135.133H1035.52V152.195H1032.73V140.395L1026.83 152.195H1024.05V135.133H1026.83V147.004ZM1041.55 147.004L1047.49 135.133H1050.24V152.195H1047.45V140.395L1041.55 152.195H1038.77V135.133H1041.55V147.004Z" fill="#3E3C4B"/>
<g clip-path="url(#clip5_2025_459)">
<path d="M686.75 79.5225C687.352 79.5225 687.948 79.641 688.504 79.8713C689.06 80.1017 689.565 80.4393 689.991 80.8649C690.416 81.2905 690.754 81.7958 690.984 82.3518C691.214 82.9079 691.333 83.5039 691.333 84.1058V95.3591C690.531 95.0253 689.692 94.7891 688.833 94.6558V84.1058C688.833 82.9558 687.9 82.0225 686.75 82.0225H665.916C664.766 82.0225 663.833 82.9558 663.833 84.1058V104.939C663.833 106.089 664.766 107.022 665.916 107.022H676.46C676.593 107.894 676.831 108.732 677.16 109.522H665.916C664.701 109.522 663.535 109.04 662.675 108.18C661.816 107.32 661.333 106.155 661.333 104.939V84.1058C661.333 82.8902 661.816 81.7244 662.675 80.8649C663.535 80.0053 664.701 79.5225 665.916 79.5225H686.75ZM684.666 87.4125V94.8208C683.798 95.0266 682.958 95.339 682.166 95.7508V87.4125C682.169 87.2505 682.203 87.0905 682.267 86.9417C682.331 86.7929 682.423 86.6582 682.539 86.5452C682.655 86.4322 682.793 86.3432 682.943 86.2833C683.094 86.2233 683.254 86.1936 683.416 86.1958C684.05 86.1958 684.573 86.6541 684.655 87.2458L684.666 87.4125ZM677.525 95.7225L677.57 100.332C677.16 101.112 676.841 101.949 676.631 102.829C676.468 102.867 676.298 102.87 676.134 102.839C675.969 102.808 675.812 102.744 675.673 102.649C675.535 102.555 675.417 102.433 675.328 102.291C675.238 102.149 675.18 101.99 675.155 101.824L675.141 101.659L675.083 95.7475C675.081 95.4251 675.207 95.1151 675.434 94.8858C675.661 94.6564 675.969 94.5263 676.291 94.5241C676.585 94.52 676.871 94.6223 677.095 94.8123C677.319 95.0022 677.467 95.2669 677.511 95.5575L677.525 95.7225ZM669.25 89.5291C669.883 89.5291 670.405 89.9975 670.488 90.6058L670.5 90.7741V101.619C670.498 101.949 670.365 102.266 670.131 102.499C669.897 102.732 669.58 102.862 669.25 102.862C668.948 102.863 668.657 102.754 668.43 102.556C668.202 102.359 668.054 102.086 668.011 101.787L668 101.617V90.7725C668 90.0858 668.56 89.5291 669.25 89.5291ZM696.333 105.362C696.333 107.794 695.367 110.125 693.648 111.844C691.929 113.563 689.597 114.529 687.166 114.529C684.735 114.529 682.404 113.563 680.685 111.844C678.965 110.125 678 107.794 678 105.362C678 102.931 678.965 100.6 680.685 98.8806C682.404 97.1616 684.735 96.1958 687.166 96.1958C689.597 96.1958 691.929 97.1616 693.648 98.8806C695.367 100.6 696.333 102.931 696.333 105.362ZM692.756 101.439C692.679 101.362 692.587 101.3 692.486 101.258C692.384 101.216 692.276 101.194 692.166 101.194C692.057 101.194 691.948 101.216 691.847 101.258C691.746 101.3 691.654 101.362 691.576 101.439L685.5 107.517L682.756 104.772C682.6 104.616 682.388 104.528 682.166 104.528C681.945 104.528 681.733 104.616 681.576 104.772C681.42 104.929 681.332 105.141 681.332 105.362C681.332 105.584 681.42 105.796 681.576 105.952L684.91 109.286C684.987 109.363 685.079 109.425 685.18 109.467C685.282 109.509 685.39 109.531 685.5 109.531C685.609 109.531 685.718 109.509 685.819 109.467C685.92 109.425 686.012 109.363 686.09 109.286L692.756 102.619C692.834 102.542 692.896 102.45 692.938 102.349C692.98 102.247 693.001 102.139 693.001 102.029C693.001 101.92 692.98 101.811 692.938 101.71C692.896 101.608 692.834 101.517 692.756 101.439Z" fill="#3E3C4B"/>
<foreignObject x="657.667" y="75.8544" width="44.3342" height="44.3411"><div xmlns="http://www.w3.org/1999/xhtml" style="backdrop-filter:blur(2.33px);clip-path:url(#bgblur_6_2025_459_clip_path);height:100%;width:100%"></div></foreignObject><g filter="url(#filter4_iiii_2025_459)" data-figma-bg-blur-radius="4.66711">
<path d="M687.751 80.5215C688.353 80.5215 688.949 80.64 689.505 80.8704C690.061 81.1007 690.566 81.4383 690.992 81.8639C691.417 82.2895 691.755 82.7948 691.985 83.3509C692.215 83.9069 692.334 84.5029 692.334 85.1048V96.3582C691.532 96.0243 690.693 95.7882 689.834 95.6548V85.1048C689.834 83.9548 688.901 83.0215 687.751 83.0215H666.917C665.767 83.0215 664.834 83.9548 664.834 85.1048V105.938C664.834 107.088 665.767 108.021 666.917 108.021H677.461C677.594 108.893 677.832 109.731 678.161 110.521H666.917C665.702 110.521 664.536 110.039 663.676 109.179C662.817 108.32 662.334 107.154 662.334 105.938V85.1048C662.334 83.8892 662.817 82.7235 663.676 81.8639C664.536 81.0044 665.702 80.5215 666.917 80.5215H687.751ZM685.667 88.4115V95.8198C684.799 96.0257 683.959 96.338 683.167 96.7498V88.4115C683.169 88.2495 683.204 88.0896 683.268 87.9408C683.332 87.792 683.424 87.6572 683.54 87.5442C683.656 87.4313 683.794 87.3422 683.944 87.2823C684.095 87.2223 684.255 87.1926 684.417 87.1948C685.051 87.1948 685.574 87.6532 685.656 88.2448L685.667 88.4115ZM678.526 96.7215L678.571 101.331C678.161 102.111 677.842 102.948 677.632 103.828C677.469 103.866 677.299 103.869 677.135 103.838C676.97 103.807 676.813 103.743 676.674 103.648C676.536 103.554 676.418 103.432 676.329 103.29C676.239 103.148 676.181 102.989 676.156 102.823L676.142 102.658L676.084 96.7465C676.082 96.4241 676.208 96.1142 676.435 95.8848C676.662 95.6554 676.97 95.5254 677.292 95.5232C677.586 95.519 677.872 95.6213 678.096 95.8113C678.32 96.0012 678.468 96.2659 678.512 96.5565L678.526 96.7215ZM670.251 90.5282C670.884 90.5282 671.406 90.9965 671.489 91.6048L671.501 91.7732V102.618C671.499 102.949 671.366 103.265 671.132 103.498C670.898 103.731 670.581 103.861 670.251 103.861C669.949 103.862 669.658 103.753 669.431 103.555C669.203 103.358 669.055 103.085 669.012 102.786L669.001 102.616V91.7715C669.001 91.0848 669.561 90.5282 670.251 90.5282ZM697.334 106.361C697.334 108.793 696.368 111.124 694.649 112.843C692.93 114.562 690.598 115.528 688.167 115.528C685.736 115.528 683.405 114.562 681.686 112.843C679.966 111.124 679.001 108.793 679.001 106.361C679.001 103.93 679.966 101.599 681.686 99.8797C683.405 98.1606 685.736 97.1948 688.167 97.1948C690.598 97.1948 692.93 98.1606 694.649 99.8797C696.368 101.599 697.334 103.93 697.334 106.361ZM693.757 102.438C693.68 102.361 693.588 102.299 693.487 102.257C693.385 102.215 693.277 102.193 693.167 102.193C693.058 102.193 692.949 102.215 692.848 102.257C692.747 102.299 692.655 102.361 692.577 102.438L686.501 108.516L683.757 105.771C683.601 105.615 683.389 105.527 683.167 105.527C682.946 105.527 682.734 105.615 682.577 105.771C682.421 105.928 682.333 106.14 682.333 106.361C682.333 106.583 682.421 106.795 682.577 106.951L685.911 110.285C685.988 110.362 686.08 110.424 686.181 110.466C686.283 110.508 686.391 110.53 686.501 110.53C686.61 110.53 686.719 110.508 686.82 110.466C686.921 110.424 687.013 110.362 687.091 110.285L693.757 103.618C693.835 103.541 693.896 103.449 693.939 103.348C693.981 103.246 694.002 103.138 694.002 103.028C694.002 102.919 693.981 102.81 693.939 102.709C693.896 102.608 693.835 102.516 693.757 102.438Z" fill="#3E3C4B" fill-opacity="0.1"/>
</g>
</g>
<path d="M623.52 142.234V144.625H616.336V142.234H623.52ZM617.004 135.133V152.195H614.156V135.133H617.004ZM625.746 135.133V152.195H622.91V135.133H625.746ZM634.629 149.617V143.301C634.629 142.863 634.566 142.512 634.441 142.246C634.324 141.98 634.148 141.789 633.914 141.672C633.688 141.547 633.402 141.484 633.059 141.484C632.699 141.484 632.395 141.559 632.145 141.707C631.902 141.855 631.719 142.059 631.594 142.316C631.469 142.566 631.406 142.855 631.406 143.184H628.676C628.676 142.676 628.777 142.188 628.98 141.719C629.191 141.25 629.492 140.832 629.883 140.465C630.273 140.098 630.746 139.809 631.301 139.598C631.855 139.387 632.473 139.281 633.152 139.281C633.965 139.281 634.688 139.418 635.32 139.691C635.953 139.957 636.449 140.391 636.809 140.992C637.176 141.586 637.359 142.367 637.359 143.336V149.254C637.359 149.84 637.395 150.363 637.465 150.824C637.543 151.277 637.648 151.672 637.781 152.008V152.195H635.004C634.879 151.891 634.785 151.5 634.723 151.023C634.66 150.547 634.629 150.078 634.629 149.617ZM634.992 144.473L635.004 146.242H633.691C633.301 146.242 632.949 146.297 632.637 146.406C632.324 146.508 632.059 146.656 631.84 146.852C631.629 147.039 631.465 147.27 631.348 147.543C631.238 147.816 631.184 148.117 631.184 148.445C631.184 148.844 631.238 149.168 631.348 149.418C631.465 149.668 631.633 149.855 631.852 149.98C632.078 150.098 632.352 150.156 632.672 150.156C633.109 150.156 633.488 150.062 633.809 149.875C634.137 149.68 634.387 149.445 634.559 149.172C634.738 148.898 634.809 148.648 634.77 148.422L635.391 149.559C635.328 149.855 635.211 150.168 635.039 150.496C634.875 150.824 634.66 151.137 634.395 151.434C634.129 151.73 633.809 151.973 633.434 152.16C633.059 152.34 632.625 152.43 632.133 152.43C631.422 152.43 630.789 152.281 630.234 151.984C629.68 151.688 629.242 151.262 628.922 150.707C628.609 150.145 628.453 149.473 628.453 148.691C628.453 148.059 628.559 147.484 628.77 146.969C628.98 146.453 629.293 146.012 629.707 145.645C630.121 145.27 630.641 144.98 631.266 144.777C631.898 144.574 632.637 144.473 633.48 144.473H634.992ZM642.094 139.516H644.824L644.73 143.969C644.699 145.266 644.57 146.383 644.344 147.32C644.117 148.25 643.82 149.035 643.453 149.676C643.086 150.316 642.668 150.84 642.199 151.246C641.73 151.645 641.23 151.961 640.699 152.195H639.926V149.922L640.289 149.898C640.594 149.531 640.848 149.168 641.051 148.809C641.262 148.441 641.434 148.039 641.566 147.602C641.699 147.156 641.797 146.641 641.859 146.055C641.93 145.469 641.977 144.773 642 143.969L642.094 139.516ZM642.785 139.516H649.805V152.195H647.086V141.941H642.785V139.516ZM639.387 149.898H651.375V155.98H648.656V152.195H642.152V155.98H639.375L639.387 149.898ZM658.254 152.43C657.434 152.43 656.703 152.309 656.062 152.066C655.422 151.816 654.879 151.449 654.434 150.965C653.988 150.473 653.648 149.871 653.414 149.16C653.18 148.441 653.062 147.609 653.062 146.664V145.445C653.062 144.375 653.184 143.453 653.426 142.68C653.676 141.898 654.02 141.258 654.457 140.758C654.895 140.258 655.41 139.887 656.004 139.645C656.605 139.402 657.258 139.281 657.961 139.281C658.758 139.281 659.449 139.41 660.035 139.668C660.621 139.926 661.102 140.312 661.477 140.828C661.859 141.344 662.141 141.98 662.32 142.738C662.508 143.496 662.602 144.367 662.602 145.352V146.723H654.375V144.66H659.906V144.367C659.891 143.789 659.82 143.293 659.695 142.879C659.57 142.457 659.367 142.137 659.086 141.918C658.812 141.691 658.434 141.578 657.949 141.578C657.598 141.578 657.285 141.645 657.012 141.777C656.738 141.91 656.512 142.125 656.332 142.422C656.16 142.719 656.027 143.117 655.934 143.617C655.84 144.109 655.793 144.719 655.793 145.445V146.664C655.793 147.297 655.848 147.832 655.957 148.27C656.074 148.707 656.246 149.066 656.473 149.348C656.699 149.621 656.973 149.824 657.293 149.957C657.621 150.082 658 150.145 658.43 150.145C659.062 150.145 659.605 150.027 660.059 149.793C660.52 149.551 660.918 149.238 661.254 148.855L662.461 150.531C662.234 150.836 661.93 151.137 661.547 151.434C661.164 151.723 660.699 151.961 660.152 152.148C659.613 152.336 658.98 152.43 658.254 152.43ZM668.238 147.109L664.078 139.516H667.43L669.551 144.484H671.695L671.32 147.109H668.238ZM669.598 146.688L667.312 152.195H663.973L667.547 145.07L669.598 146.688ZM673.324 139.516V152.195H670.594V139.516H673.324ZM679.863 139.516L675.703 147.109H672.621L672.246 144.484H674.379L676.512 139.516H679.863ZM676.617 152.195L674.32 146.688L676.43 145.07L680.004 152.195H676.617ZM689.121 144.789V147.062H683.906V144.789H689.121ZM684.68 139.516V152.195H681.949V139.516H684.68ZM691.102 139.516V152.195H688.371V139.516H691.102ZM693.551 146.371V145.352C693.551 144.367 693.672 143.496 693.914 142.738C694.156 141.98 694.5 141.348 694.945 140.84C695.398 140.324 695.93 139.938 696.539 139.68C697.148 139.414 697.82 139.281 698.555 139.281C699.305 139.281 699.984 139.414 700.594 139.68C701.211 139.938 701.742 140.324 702.188 140.84C702.641 141.348 702.988 141.98 703.23 142.738C703.473 143.496 703.594 144.367 703.594 145.352V146.371C703.594 147.355 703.473 148.227 703.23 148.984C702.988 149.742 702.641 150.379 702.188 150.895C701.742 151.402 701.215 151.785 700.605 152.043C699.996 152.301 699.32 152.43 698.578 152.43C697.844 152.43 697.168 152.301 696.551 152.043C695.941 151.785 695.41 151.402 694.957 150.895C694.504 150.379 694.156 149.742 693.914 148.984C693.672 148.227 693.551 147.355 693.551 146.371ZM696.281 145.352V146.371C696.281 147.004 696.336 147.559 696.445 148.035C696.555 148.504 696.711 148.895 696.914 149.207C697.117 149.52 697.359 149.754 697.641 149.91C697.922 150.066 698.234 150.145 698.578 150.145C698.961 150.145 699.293 150.066 699.574 149.91C699.863 149.754 700.102 149.52 700.289 149.207C700.484 148.895 700.629 148.504 700.723 148.035C700.816 147.559 700.863 147.004 700.863 146.371V145.352C700.863 144.727 700.809 144.18 700.699 143.711C700.59 143.234 700.434 142.84 700.23 142.527C700.027 142.207 699.781 141.969 699.492 141.812C699.211 141.656 698.898 141.578 698.555 141.578C698.219 141.578 697.91 141.656 697.629 141.812C697.355 141.969 697.117 142.207 696.914 142.527C696.711 142.84 696.555 143.234 696.445 143.711C696.336 144.18 696.281 144.727 696.281 145.352ZM710.449 150.145C710.801 150.145 711.113 150.07 711.387 149.922C711.668 149.773 711.891 149.543 712.055 149.23C712.219 148.91 712.309 148.496 712.324 147.988H714.891C714.875 148.887 714.668 149.672 714.27 150.344C713.871 151.008 713.34 151.523 712.676 151.891C712.02 152.25 711.289 152.43 710.484 152.43C709.648 152.43 708.918 152.297 708.293 152.031C707.676 151.758 707.164 151.363 706.758 150.848C706.352 150.332 706.047 149.707 705.844 148.973C705.648 148.23 705.551 147.383 705.551 146.43V145.281C705.551 144.336 705.648 143.492 705.844 142.75C706.047 142.008 706.352 141.379 706.758 140.863C707.164 140.348 707.676 139.957 708.293 139.691C708.91 139.418 709.637 139.281 710.473 139.281C711.363 139.281 712.133 139.469 712.781 139.844C713.438 140.211 713.949 140.75 714.316 141.461C714.684 142.172 714.875 143.043 714.891 144.074H712.324C712.309 143.527 712.227 143.07 712.078 142.703C711.93 142.328 711.719 142.047 711.445 141.859C711.18 141.672 710.844 141.578 710.438 141.578C709.992 141.578 709.625 141.664 709.336 141.836C709.055 142 708.836 142.242 708.68 142.562C708.531 142.883 708.426 143.273 708.363 143.734C708.309 144.188 708.281 144.703 708.281 145.281V146.43C708.281 147.023 708.309 147.551 708.363 148.012C708.418 148.465 708.52 148.852 708.668 149.172C708.824 149.492 709.047 149.734 709.336 149.898C709.625 150.062 709.996 150.145 710.449 150.145ZM722.273 139.516V152.195H719.531V139.516H722.273ZM725.625 139.516V141.789H716.215V139.516H725.625ZM729.656 143.523H732.668C733.613 143.523 734.414 143.707 735.07 144.074C735.727 144.441 736.223 144.953 736.559 145.609C736.902 146.258 737.074 147.004 737.074 147.848C737.074 148.465 736.977 149.039 736.781 149.57C736.586 150.102 736.301 150.562 735.926 150.953C735.551 151.344 735.09 151.648 734.543 151.867C734.004 152.086 733.379 152.195 732.668 152.195H727.805V139.516H730.547V149.91H732.668C733.082 149.91 733.41 149.812 733.652 149.617C733.902 149.422 734.078 149.172 734.18 148.867C734.289 148.562 734.344 148.234 734.344 147.883C734.344 147.531 734.289 147.199 734.18 146.887C734.078 146.566 733.902 146.309 733.652 146.113C733.41 145.91 733.082 145.809 732.668 145.809H729.656V143.523ZM643.031 167.516H645.762L645.668 171.969C645.637 173.266 645.508 174.383 645.281 175.32C645.055 176.25 644.758 177.035 644.391 177.676C644.023 178.316 643.605 178.84 643.137 179.246C642.668 179.645 642.168 179.961 641.637 180.195H640.863V177.922L641.227 177.898C641.531 177.531 641.785 177.168 641.988 176.809C642.199 176.441 642.371 176.039 642.504 175.602C642.637 175.156 642.734 174.641 642.797 174.055C642.867 173.469 642.914 172.773 642.938 171.969L643.031 167.516ZM643.723 167.516H650.742V180.195H648.023V169.941H643.723V167.516ZM640.324 177.898H652.312V183.98H649.594V180.195H643.09V183.98H640.312L640.324 177.898ZM660.223 177.617V171.301C660.223 170.863 660.16 170.512 660.035 170.246C659.918 169.98 659.742 169.789 659.508 169.672C659.281 169.547 658.996 169.484 658.652 169.484C658.293 169.484 657.988 169.559 657.738 169.707C657.496 169.855 657.312 170.059 657.188 170.316C657.062 170.566 657 170.855 657 171.184H654.27C654.27 170.676 654.371 170.188 654.574 169.719C654.785 169.25 655.086 168.832 655.477 168.465C655.867 168.098 656.34 167.809 656.895 167.598C657.449 167.387 658.066 167.281 658.746 167.281C659.559 167.281 660.281 167.418 660.914 167.691C661.547 167.957 662.043 168.391 662.402 168.992C662.77 169.586 662.953 170.367 662.953 171.336V177.254C662.953 177.84 662.988 178.363 663.059 178.824C663.137 179.277 663.242 179.672 663.375 180.008V180.195H660.598C660.473 179.891 660.379 179.5 660.316 179.023C660.254 178.547 660.223 178.078 660.223 177.617ZM660.586 172.473L660.598 174.242H659.285C658.895 174.242 658.543 174.297 658.23 174.406C657.918 174.508 657.652 174.656 657.434 174.852C657.223 175.039 657.059 175.27 656.941 175.543C656.832 175.816 656.777 176.117 656.777 176.445C656.777 176.844 656.832 177.168 656.941 177.418C657.059 177.668 657.227 177.855 657.445 177.98C657.672 178.098 657.945 178.156 658.266 178.156C658.703 178.156 659.082 178.062 659.402 177.875C659.73 177.68 659.98 177.445 660.152 177.172C660.332 176.898 660.402 176.648 660.363 176.422L660.984 177.559C660.922 177.855 660.805 178.168 660.633 178.496C660.469 178.824 660.254 179.137 659.988 179.434C659.723 179.73 659.402 179.973 659.027 180.16C658.652 180.34 658.219 180.43 657.727 180.43C657.016 180.43 656.383 180.281 655.828 179.984C655.273 179.688 654.836 179.262 654.516 178.707C654.203 178.145 654.047 177.473 654.047 176.691C654.047 176.059 654.152 175.484 654.363 174.969C654.574 174.453 654.887 174.012 655.301 173.645C655.715 173.27 656.234 172.98 656.859 172.777C657.492 172.574 658.23 172.473 659.074 172.473H660.586ZM673.02 172.789V175.062H667.805V172.789H673.02ZM668.578 167.516V180.195H665.848V167.516H668.578ZM675 167.516V180.195H672.27V167.516H675ZM685.113 172.789V175.062H679.898V172.789H685.113ZM680.672 167.516V180.195H677.941V167.516H680.672ZM687.094 167.516V180.195H684.363V167.516H687.094ZM691.992 171.523H695.004C695.949 171.523 696.75 171.707 697.406 172.074C698.062 172.441 698.559 172.953 698.895 173.609C699.238 174.258 699.41 175.004 699.41 175.848C699.41 176.465 699.312 177.039 699.117 177.57C698.922 178.102 698.637 178.562 698.262 178.953C697.887 179.344 697.426 179.648 696.879 179.867C696.34 180.086 695.715 180.195 695.004 180.195H690.141V167.516H692.883V177.91H695.004C695.418 177.91 695.746 177.812 695.988 177.617C696.238 177.422 696.414 177.172 696.516 176.867C696.625 176.562 696.68 176.234 696.68 175.883C696.68 175.531 696.625 175.199 696.516 174.887C696.414 174.566 696.238 174.309 695.988 174.113C695.746 173.91 695.418 173.809 695.004 173.809H691.992V171.523ZM703.758 167.516V180.195H701.027V167.516H703.758ZM709.148 167.516L710.977 171.383L712.699 167.516H715.688L712.359 173.738L715.805 180.195H712.816L710.918 176.199L709.055 180.195H706.055L709.418 173.762L706.16 167.516H709.148Z" fill="#3E3C4B"/>
<defs>
<filter id="filter0_iiii_2025_459" x="87.84" y="-8.96469" width="1176.32" height="316.32" filterUnits="userSpaceOnUse" color-interpolation-filters="sRGB">
<feFlood flood-opacity="0" result="BackgroundImageFix"/>
<feBlend mode="normal" in="SourceGraphic" in2="BackgroundImageFix" result="shape"/>
<feColorMatrix in="SourceAlpha" type="matrix" values="0 0 0 0 0 0 0 0 0 0 0 0 0 0 0 0 0 0 127 0" result="hardAlpha"/>
<feOffset dx="-15.2" dy="15.2"/>
<feGaussianBlur stdDeviation="7.6"/>
<feComposite in2="hardAlpha" operator="arithmetic" k2="-1" k3="1"/>
<feColorMatrix type="matrix" values="0 0 0 0 0.831373 0 0 0 0 0.866667 0 0 0 0 0.917647 0 0 0 0.6 0"/>
<feBlend mode="normal" in2="shape" result="effect1_innerShadow_2025_459"/>
<feColorMatrix in="SourceAlpha" type="matrix" values="0 0 0 0 0 0 0 0 0 0 0 0 0 0 0 0 0 0 127 0" result="hardAlpha"/>
<feOffset dx="-7.6" dy="7.6"/>
<feGaussianBlur stdDeviation="3.8"/>
<feComposite in2="hardAlpha" operator="arithmetic" k2="-1" k3="1"/>
<feColorMatrix type="matrix" values="0 0 0 0 1 0 0 0 0 1 0 0 0 0 1 0 0 0 0.6 0"/>
<feBlend mode="normal" in2="effect1_innerShadow_2025_459" result="effect2_innerShadow_2025_459"/>
<feColorMatrix in="SourceAlpha" type="matrix" values="0 0 0 0 0 0 0 0 0 0 0 0 0 0 0 0 0 0 127 0" result="hardAlpha"/>
<feOffset dx="15.2" dy="-15.2"/>
<feGaussianBlur stdDeviation="7.6"/>
<feComposite in2="hardAlpha" operator="arithmetic" k2="-1" k3="1"/>
<feColorMatrix type="matrix" values="0 0 0 0 1 0 0 0 0 1 0 0 0 0 1 0 0 0 0.6 0"/>
<feBlend mode="normal" in2="effect2_innerShadow_2025_459" result="effect3_innerShadow_2025_459"/>
<feColorMatrix in="SourceAlpha" type="matrix" values="0 0 0 0 0 0 0 0 0 0 0 0 0 0 0 0 0 0 127 0" result="hardAlpha"/>
<feOffset dx="7.6" dy="-7.6"/>
<feGaussianBlur stdDeviation="3.8"/>
<feComposite in2="hardAlpha" operator="arithmetic" k2="-1" k3="1"/>
<feColorMatrix type="matrix" values="0 0 0 0 0.831373 0 0 0 0 0.866667 0 0 0 0 0.917647 0 0 0 0.6 0"/>
<feBlend mode="normal" in2="effect3_innerShadow_2025_459" result="effect4_innerShadow_2025_459"/>
</filter>
<clipPath id="bgblur_0_2025_459_clip_path" transform="translate(-87.84 8.96469)"><path d="M1159.53 79.1953C1168.63 79.1953 1176 86.5696 1176 95.666C1176 163.889 1120.69 219.195 1052.47 219.195H192.471C183.374 219.195 176 211.821 176 202.725C176 134.501 231.306 79.1954 299.529 79.1953H544.54C575.041 107.801 622.586 126.195 676 126.195C729.414 126.195 776.959 107.801 807.46 79.1953H1159.53Z"/>
</clipPath><filter id="filter1_dii_2025_459" x="468.461" y="0.00019455" width="415.078" height="353.99" filterUnits="userSpaceOnUse" color-interpolation-filters="sRGB">
<feFlood flood-opacity="0" result="BackgroundImageFix"/>
<feColorMatrix in="SourceAlpha" type="matrix" values="0 0 0 0 0 0 0 0 0 0 0 0 0 0 0 0 0 0 127 0" result="hardAlpha"/>
<feOffset dy="32.8"/>
<feGaussianBlur stdDeviation="40"/>
<feColorMatrix type="matrix" values="0 0 0 0 0.788235 0 0 0 0 0.835294 0 0 0 0 0.898039 0 0 0 0.6 0"/>
<feBlend mode="normal" in2="BackgroundImageFix" result="effect1_dropShadow_2025_459"/>
<feBlend mode="normal" in="SourceGraphic" in2="effect1_dropShadow_2025_459" result="shape"/>
<feColorMatrix in="SourceAlpha" type="matrix" values="0 0 0 0 0 0 0 0 0 0 0 0 0 0 0 0 0 0 127 0" result="hardAlpha"/>
<feOffset dy="8.67378"/>
<feGaussianBlur stdDeviation="4.33689"/>
<feComposite in2="hardAlpha" operator="arithmetic" k2="-1" k3="1"/>
<feColorMatrix type="matrix" values="0 0 0 0 1 0 0 0 0 1 0 0 0 0 1 0 0 0 1 0"/>
<feBlend mode="normal" in2="shape" result="effect2_innerShadow_2025_459"/>
<feColorMatrix in="SourceAlpha" type="matrix" values="0 0 0 0 0 0 0 0 0 0 0 0 0 0 0 0 0 0 127 0" result="hardAlpha"/>
<feOffset dy="-8.67378"/>
<feGaussianBlur stdDeviation="4.33689"/>
<feComposite in2="hardAlpha" operator="arithmetic" k2="-1" k3="1"/>
<feColorMatrix type="matrix" values="0 0 0 0 0.788235 0 0 0 0 0.835294 0 0 0 0 0.898039 0 0 0 1 0"/>
<feBlend mode="normal" in2="effect2_innerShadow_2025_459" result="effect3_innerShadow_2025_459"/>
</filter>
<filter id="filter2_iiii_2025_459" x="306.921" y="128.505" width="44.1603" height="33.381" filterUnits="userSpaceOnUse" color-interpolation-filters="sRGB">
<feFlood flood-opacity="0" result="BackgroundImageFix"/>
<feBlend mode="normal" in="SourceGraphic" in2="BackgroundImageFix" result="shape"/>
<feColorMatrix in="SourceAlpha" type="matrix" values="0 0 0 0 0 0 0 0 0 0 0 0 0 0 0 0 0 0 127 0" result="hardAlpha"/>
<feOffset dx="-0.816224" dy="0.816224"/>
<feGaussianBlur stdDeviation="0.408112"/>
<feComposite in2="hardAlpha" operator="arithmetic" k2="-1" k3="1"/>
<feColorMatrix type="matrix" values="0 0 0 0 0.19451 0 0 0 0 0.188235 0 0 0 0 0.235294 0 0 0 0.4 0"/>
<feBlend mode="normal" in2="shape" result="effect1_innerShadow_2025_459"/>
<feColorMatrix in="SourceAlpha" type="matrix" values="0 0 0 0 0 0 0 0 0 0 0 0 0 0 0 0 0 0 127 0" result="hardAlpha"/>
<feOffset dx="-0.408112" dy="0.408112"/>
<feGaussianBlur stdDeviation="0.204056"/>
<feComposite in2="hardAlpha" operator="arithmetic" k2="-1" k3="1"/>
<feColorMatrix type="matrix" values="0 0 0 0 1 0 0 0 0 1 0 0 0 0 1 0 0 0 0.4 0"/>
<feBlend mode="normal" in2="effect1_innerShadow_2025_459" result="effect2_innerShadow_2025_459"/>
<feColorMatrix in="SourceAlpha" type="matrix" values="0 0 0 0 0 0 0 0 0 0 0 0 0 0 0 0 0 0 127 0" result="hardAlpha"/>
<feOffset dx="0.816224" dy="-0.816224"/>
<feGaussianBlur stdDeviation="0.408112"/>
<feComposite in2="hardAlpha" operator="arithmetic" k2="-1" k3="1"/>
<feColorMatrix type="matrix" values="0 0 0 0 1 0 0 0 0 1 0 0 0 0 1 0 0 0 0.4 0"/>
<feBlend mode="normal" in2="effect2_innerShadow_2025_459" result="effect3_innerShadow_2025_459"/>
<feColorMatrix in="SourceAlpha" type="matrix" values="0 0 0 0 0 0 0 0 0 0 0 0 0 0 0 0 0 0 127 0" result="hardAlpha"/>
<feOffset dx="0.408112" dy="-0.408112"/>
<feGaussianBlur stdDeviation="0.204056"/>
<feComposite in2="hardAlpha" operator="arithmetic" k2="-1" k3="1"/>
<feColorMatrix type="matrix" values="0 0 0 0 0.19451 0 0 0 0 0.188235 0 0 0 0 0.235294 0 0 0 0.4 0"/>
<feBlend mode="normal" in2="effect3_innerShadow_2025_459" result="effect4_innerShadow_2025_459"/>
</filter>
<clipPath id="bgblur_2_2025_459_clip_path" transform="translate(-306.921 -128.505)"><path d="M327.669 147.417L312.297 157.666C312.171 157.749 312.026 157.797 311.875 157.804C311.725 157.811 311.575 157.778 311.442 157.706C311.309 157.635 311.198 157.529 311.12 157.4C311.043 157.271 311.002 157.123 311.002 156.972V133.419C311.002 133.268 311.043 133.12 311.12 132.991C311.198 132.862 311.309 132.756 311.442 132.685C311.575 132.613 311.725 132.58 311.875 132.587C312.026 132.594 312.171 132.642 312.297 132.726L327.669 142.974V133.419C327.669 133.268 327.71 133.12 327.787 132.991C327.865 132.862 327.976 132.756 328.109 132.685C328.242 132.613 328.391 132.58 328.542 132.587C328.692 132.594 328.838 132.642 328.964 132.726L346.629 144.502C346.743 144.578 346.836 144.681 346.901 144.802C346.966 144.923 347 145.058 347 145.196C347 145.333 346.966 145.468 346.901 145.589C346.836 145.71 346.743 145.813 346.629 145.889L328.964 157.666C328.838 157.749 328.692 157.797 328.542 157.804C328.391 157.811 328.242 157.778 328.109 157.706C327.976 157.635 327.865 157.529 327.787 157.4C327.71 157.271 327.669 157.123 327.669 156.972V147.417Z"/>
</clipPath><filter id="filter3_iiii_2025_459" x="849.667" y="119.862" width="50.6667" height="50.6667" filterUnits="userSpaceOnUse" color-interpolation-filters="sRGB">
<feFlood flood-opacity="0" result="BackgroundImageFix"/>
<feBlend mode="normal" in="SourceGraphic" in2="BackgroundImageFix" result="shape"/>
<feColorMatrix in="SourceAlpha" type="matrix" values="0 0 0 0 0 0 0 0 0 0 0 0 0 0 0 0 0 0 127 0" result="hardAlpha"/>
<feOffset dx="-1.06667" dy="1.06667"/>
<feGaussianBlur stdDeviation="0.533333"/>
<feComposite in2="hardAlpha" operator="arithmetic" k2="-1" k3="1"/>
<feColorMatrix type="matrix" values="0 0 0 0 0.19451 0 0 0 0 0.188235 0 0 0 0 0.235294 0 0 0 0.4 0"/>
<feBlend mode="normal" in2="shape" result="effect1_innerShadow_2025_459"/>
<feColorMatrix in="SourceAlpha" type="matrix" values="0 0 0 0 0 0 0 0 0 0 0 0 0 0 0 0 0 0 127 0" result="hardAlpha"/>
<feOffset dx="-0.533333" dy="0.533333"/>
<feGaussianBlur stdDeviation="0.266667"/>
<feComposite in2="hardAlpha" operator="arithmetic" k2="-1" k3="1"/>
<feColorMatrix type="matrix" values="0 0 0 0 1 0 0 0 0 1 0 0 0 0 1 0 0 0 0.4 0"/>
<feBlend mode="normal" in2="effect1_innerShadow_2025_459" result="effect2_innerShadow_2025_459"/>
<feColorMatrix in="SourceAlpha" type="matrix" values="0 0 0 0 0 0 0 0 0 0 0 0 0 0 0 0 0 0 127 0" result="hardAlpha"/>
<feOffset dx="1.06667" dy="-1.06667"/>
<feGaussianBlur stdDeviation="0.533333"/>
<feComposite in2="hardAlpha" operator="arithmetic" k2="-1" k3="1"/>
<feColorMatrix type="matrix" values="0 0 0 0 1 0 0 0 0 1 0 0 0 0 1 0 0 0 0.4 0"/>
<feBlend mode="normal" in2="effect2_innerShadow_2025_459" result="effect3_innerShadow_2025_459"/>
<feColorMatrix in="SourceAlpha" type="matrix" values="0 0 0 0 0 0 0 0 0 0 0 0 0 0 0 0 0 0 127 0" result="hardAlpha"/>
<feOffset dx="0.533333" dy="-0.533333"/>
<feGaussianBlur stdDeviation="0.266667"/>
<feComposite in2="hardAlpha" operator="arithmetic" k2="-1" k3="1"/>
<feColorMatrix type="matrix" values="0 0 0 0 0.19451 0 0 0 0 0.188235 0 0 0 0 0.235294 0 0 0 0.4 0"/>
<feBlend mode="normal" in2="effect3_innerShadow_2025_459" result="effect4_innerShadow_2025_459"/>
</filter>
<clipPath id="bgblur_4_2025_459_clip_path" transform="translate(-849.667 -119.862)"><path d="M893.182 137.923V136.104H891.364V134.286H887.727V130.65H885.909V128.832H884.091V127.013H882.273V125.195H873.182V127.013H871.364V128.832H869.545V127.013H864.091V128.832H860.455V130.65H858.636V134.286H856.818V143.377H855V152.468H856.818V154.286H858.636V156.104H862.273V159.741H864.091V161.559H865.909V163.377H867.727V165.195H876.818V163.377H878.636V161.559H880.455V163.377H885.909V161.559H889.545V159.741H891.364V156.104H893.182V147.013H895V137.923H893.182ZM869.545 134.286H871.364V130.65H873.182V128.832H882.273V130.65H884.091V132.468H875V134.286H873.182V136.104H871.364V139.741H869.545V143.377H867.727V137.923H869.545V134.286ZM862.273 154.286V152.468H860.455V150.65H858.636V143.377H860.455V147.013H862.273V150.65H876.818V152.468H875V154.286H862.273ZM880.455 156.104H878.636V159.741H876.818V161.559H867.727V159.741H865.909V157.923H875V156.104H876.818V154.286H878.636V150.65H880.455V147.013H882.273V152.468H880.455V156.104ZM889.545 156.104H887.727V157.923H885.909V159.741H882.273V156.104H884.091V152.468H885.909V148.832H884.091V145.195H882.273V143.377H880.455V145.195H878.636V148.832H871.364V147.013H869.545V148.832H865.909V147.013H864.091V145.195H862.273V141.559H860.455V134.286H862.273V132.468H864.091V130.65H867.727V134.286H865.909V137.923H864.091V141.559H865.909V145.195H867.727V147.013H869.545V145.195H871.364V141.559H878.636V143.377H880.455V141.559H884.091V143.377H885.909V145.195H887.727V148.832H889.545V156.104ZM891.364 147.013H889.545V143.377H887.727V139.741H873.182V137.923H875V136.104H887.727V137.923H889.545V139.741H891.364V147.013Z"/>
</clipPath><filter id="filter4_iiii_2025_459" x="657.667" y="75.8544" width="44.3342" height="44.3411" filterUnits="userSpaceOnUse" color-interpolation-filters="sRGB">
<feFlood flood-opacity="0" result="BackgroundImageFix"/>
<feBlend mode="normal" in="SourceGraphic" in2="BackgroundImageFix" result="shape"/>
<feColorMatrix in="SourceAlpha" type="matrix" values="0 0 0 0 0 0 0 0 0 0 0 0 0 0 0 0 0 0 127 0" result="hardAlpha"/>
<feOffset dx="-0.933422" dy="0.933422"/>
<feGaussianBlur stdDeviation="0.466711"/>
<feComposite in2="hardAlpha" operator="arithmetic" k2="-1" k3="1"/>
<feColorMatrix type="matrix" values="0 0 0 0 0.19451 0 0 0 0 0.188235 0 0 0 0 0.235294 0 0 0 0.4 0"/>
<feBlend mode="normal" in2="shape" result="effect1_innerShadow_2025_459"/>
<feColorMatrix in="SourceAlpha" type="matrix" values="0 0 0 0 0 0 0 0 0 0 0 0 0 0 0 0 0 0 127 0" result="hardAlpha"/>
<feOffset dx="-0.466711" dy="0.466711"/>
<feGaussianBlur stdDeviation="0.233356"/>
<feComposite in2="hardAlpha" operator="arithmetic" k2="-1" k3="1"/>
<feColorMatrix type="matrix" values="0 0 0 0 1 0 0 0 0 1 0 0 0 0 1 0 0 0 0.4 0"/>
<feBlend mode="normal" in2="effect1_innerShadow_2025_459" result="effect2_innerShadow_2025_459"/>
<feColorMatrix in="SourceAlpha" type="matrix" values="0 0 0 0 0 0 0 0 0 0 0 0 0 0 0 0 0 0 127 0" result="hardAlpha"/>
<feOffset dx="0.933422" dy="-0.933422"/>
<feGaussianBlur stdDeviation="0.466711"/>
<feComposite in2="hardAlpha" operator="arithmetic" k2="-1" k3="1"/>
<feColorMatrix type="matrix" values="0 0 0 0 1 0 0 0 0 1 0 0 0 0 1 0 0 0 0.4 0"/>
<feBlend mode="normal" in2="effect2_innerShadow_2025_459" result="effect3_innerShadow_2025_459"/>
<feColorMatrix in="SourceAlpha" type="matrix" values="0 0 0 0 0 0 0 0 0 0 0 0 0 0 0 0 0 0 127 0" result="hardAlpha"/>
<feOffset dx="0.466711" dy="-0.466711"/>
<feGaussianBlur stdDeviation="0.233356"/>
<feComposite in2="hardAlpha" operator="arithmetic" k2="-1" k3="1"/>
<feColorMatrix type="matrix" values="0 0 0 0 0.19451 0 0 0 0 0.188235 0 0 0 0 0.235294 0 0 0 0.4 0"/>
<feBlend mode="normal" in2="effect3_innerShadow_2025_459" result="effect4_innerShadow_2025_459"/>
</filter>
<clipPath id="bgblur_6_2025_459_clip_path" transform="translate(-657.667 -75.8544)"><path d="M687.751 80.5215C688.353 80.5215 688.949 80.64 689.505 80.8704C690.061 81.1007 690.566 81.4383 690.992 81.8639C691.417 82.2895 691.755 82.7948 691.985 83.3509C692.215 83.9069 692.334 84.5029 692.334 85.1048V96.3582C691.532 96.0243 690.693 95.7882 689.834 95.6548V85.1048C689.834 83.9548 688.901 83.0215 687.751 83.0215H666.917C665.767 83.0215 664.834 83.9548 664.834 85.1048V105.938C664.834 107.088 665.767 108.021 666.917 108.021H677.461C677.594 108.893 677.832 109.731 678.161 110.521H666.917C665.702 110.521 664.536 110.039 663.676 109.179C662.817 108.32 662.334 107.154 662.334 105.938V85.1048C662.334 83.8892 662.817 82.7235 663.676 81.8639C664.536 81.0044 665.702 80.5215 666.917 80.5215H687.751ZM685.667 88.4115V95.8198C684.799 96.0257 683.959 96.338 683.167 96.7498V88.4115C683.169 88.2495 683.204 88.0896 683.268 87.9408C683.332 87.792 683.424 87.6572 683.54 87.5442C683.656 87.4313 683.794 87.3422 683.944 87.2823C684.095 87.2223 684.255 87.1926 684.417 87.1948C685.051 87.1948 685.574 87.6532 685.656 88.2448L685.667 88.4115ZM678.526 96.7215L678.571 101.331C678.161 102.111 677.842 102.948 677.632 103.828C677.469 103.866 677.299 103.869 677.135 103.838C676.97 103.807 676.813 103.743 676.674 103.648C676.536 103.554 676.418 103.432 676.329 103.29C676.239 103.148 676.181 102.989 676.156 102.823L676.142 102.658L676.084 96.7465C676.082 96.4241 676.208 96.1142 676.435 95.8848C676.662 95.6554 676.97 95.5254 677.292 95.5232C677.586 95.519 677.872 95.6213 678.096 95.8113C678.32 96.0012 678.468 96.2659 678.512 96.5565L678.526 96.7215ZM670.251 90.5282C670.884 90.5282 671.406 90.9965 671.489 91.6048L671.501 91.7732V102.618C671.499 102.949 671.366 103.265 671.132 103.498C670.898 103.731 670.581 103.861 670.251 103.861C669.949 103.862 669.658 103.753 669.431 103.555C669.203 103.358 669.055 103.085 669.012 102.786L669.001 102.616V91.7715C669.001 91.0848 669.561 90.5282 670.251 90.5282ZM697.334 106.361C697.334 108.793 696.368 111.124 694.649 112.843C692.93 114.562 690.598 115.528 688.167 115.528C685.736 115.528 683.405 114.562 681.686 112.843C679.966 111.124 679.001 108.793 679.001 106.361C679.001 103.93 679.966 101.599 681.686 99.8797C683.405 98.1606 685.736 97.1948 688.167 97.1948C690.598 97.1948 692.93 98.1606 694.649 99.8797C696.368 101.599 697.334 103.93 697.334 106.361ZM693.757 102.438C693.68 102.361 693.588 102.299 693.487 102.257C693.385 102.215 693.277 102.193 693.167 102.193C693.058 102.193 692.949 102.215 692.848 102.257C692.747 102.299 692.655 102.361 692.577 102.438L686.501 108.516L683.757 105.771C683.601 105.615 683.389 105.527 683.167 105.527C682.946 105.527 682.734 105.615 682.577 105.771C682.421 105.928 682.333 106.14 682.333 106.361C682.333 106.583 682.421 106.795 682.577 106.951L685.911 110.285C685.988 110.362 686.08 110.424 686.181 110.466C686.283 110.508 686.391 110.53 686.501 110.53C686.61 110.53 686.719 110.508 686.82 110.466C686.921 110.424 687.013 110.362 687.091 110.285L693.757 103.618C693.835 103.541 693.896 103.449 693.939 103.348C693.981 103.246 694.002 103.138 694.002 103.028C694.002 102.919 693.981 102.81 693.939 102.709C693.896 102.608 693.835 102.516 693.757 102.438Z"/>
</clipPath><clipPath id="clip1_2025_459">
<rect x="303" y="120.195" width="48" height="48" rx="24" fill="white"/>
</clipPath>
<clipPath id="clip3_2025_459">
<rect x="850" y="120.195" width="48" height="48" rx="24" fill="white"/>
</clipPath>
<clipPath id="clip5_2025_459">
<rect x="654" y="72.1953" width="48" height="48" rx="24" fill="white"/>
</clipPath>
</defs>
</svg>
